# xmcd CD database file generated by Grip 3.2.0
# 
# Track frame offsets:
#       150
#       15788
#       34200
#       54225
#       75600
#       101625
#       111975
#       126600
#       139725
#       160275
#       185625
#       196463
#       214950
# 
# Disc length: 3000 seconds
# 
# Revision: 2
# Processed by: cddbd v1.5.1PL0 Copyright (c) Steve Scherf et al.
# Submitted via: Grip 3.2.0
# 
DISCID=b80bb60d
DTITLE=Compilations - Adventures in Music - #28 Cotton Patch Blues
DYEAR=1991
DGENRE=Blues
TTITLE0=Sam Myers - Money Is My Downfall
TTITLE1=Roosevelt "Booba"  Barnes - How Long This Must Go On
TTITLE2=Frank Frost - Midnight Prowler
TTITLE3=Johnny Littlejohn - She's Nineteen Years Old
TTITLE4=King Edward - The Things I Used To Do
TTITLE5=Junior Kimbrough - I Feel Good
TTITLE6=Mississippi Fred McDowell - Baby, Please Don't Go
TTITLE7=Junior Kimbrough - Ain't It Lonesome
TTITLE8=Big Jack Johnson - Rudolph Got Drunk Last Night
TTITLE9=James "Super Chiken" Johnson - Big Bad Jimmy
TTITLE10=Elmore James - Bad Feeling
TTITLE11=Frank Frost - I Got Jane On My Mind
TTITLE12=Junior Kimbrough - I'm Sorry
EXTD=1991
EXTT0=
EXTT1=
EXTT2=
EXTT3=
EXTT4=
EXTT5=
EXTT6=
EXTT7=
EXTT8=
EXTT9=
EXTT10=
EXTT11=
EXTT12=
PLAYORDER=
